<?xml version="1.0" encoding="utf-8"?>
<!-- Generator: Adobe Illustrator 26.0.3, SVG Export Plug-In . SVG Version: 6.00 Build 0)  -->
<svg version="1.1" id="buttom" xmlns="http://www.w3.org/2000/svg" xmlns:xlink="http://www.w3.org/1999/xlink" x="0px" y="0px"
	 viewBox="0 0 325.9 86.2" style="enable-background:new 0 0 325.9 86.2;" xml:space="preserve">
<style type="text/css">
	.st0{fill:#FFFFFF;}
</style>
<path class="st0" d="M281.6,0H44.3C19.9,0,0,19.3,0,43.1s19.9,43.1,44.3,43.1h237.3c24.5,0,44.3-19.4,44.3-43.1
	C325.9,19.3,306,0,281.6,0z M281.6,83.4H44.3c-22.8,0-41.4-18-41.4-40.2C3,20.9,21.5,2.9,44.3,2.9h237.3c22.8,0,41.4,18,41.4,40.2
	S304.3,83.4,281.6,83.4z"/>
<g>
	<path class="st0" d="M240.2,41.8c-0.5-0.5-1.1-0.9-1.7-1.2s-1.3-0.6-1.9-0.9c-0.7-0.3-1.4-0.5-2-0.9c-0.7-0.3-1.2-0.7-1.6-1.1
		c-0.4-0.4-0.6-0.9-0.6-1.4c0-0.8,0.3-1.3,0.8-1.7s1.3-0.6,2.2-0.6c0.8,0,1.6,0.2,2.4,0.5s1.7,0.7,2.6,1.1l1.6-3.3
		c-0.9-0.6-1.9-1.1-3-1.5s-2.6-0.6-4.3-0.6c-1.4,0.1-2.6,0.4-3.6,0.9c-1,0.6-1.8,1.3-2.4,2.2s-0.9,2-0.9,3.3c0,1.1,0.2,2,0.6,2.7
		c0.4,0.7,0.9,1.3,1.5,1.8s1.3,0.9,2,1.2s1.4,0.6,2.1,0.9c0.6,0.2,1.1,0.5,1.6,0.8s0.9,0.6,1.2,1s0.4,0.8,0.4,1.2
		c0,0.6-0.2,1.1-0.5,1.5c-0.4,0.4-0.8,0.6-1.3,0.8s-1.1,0.2-1.6,0.2s-1.1-0.1-1.7-0.2s-1.2-0.4-1.8-0.7s-1.2-0.6-1.7-1l-1.9,3.4
		c0.8,0.5,1.6,1,2.4,1.3c0.8,0.3,1.7,0.6,2.6,0.8c0.9,0.2,1.7,0.3,2.6,0.3c1.6,0,3-0.3,4.1-0.9s2-1.4,2.5-2.3s0.9-2,0.9-3.1
		s-0.1-2-0.5-2.7C241.1,42.9,240.7,42.2,240.2,41.8z"/>
	<path class="st0" d="M94,29.4l-10,23h4.3l1.8-4.3h7.3l1.7,4.3h5l-10-23H94z M91.7,44.4l2.2-5.4l2.1,5.4H91.7z"/>
	<path class="st0" d="M218.6,44.2c0,0.7-0.2,1.4-0.6,2c-0.4,0.6-1,1.2-1.7,1.6c-0.7,0.4-1.5,0.6-2.4,0.6c-0.8,0-1.6-0.2-2.3-0.6
		c-0.7-0.4-1.2-0.9-1.7-1.6c-0.4-0.6-0.6-1.3-0.6-2V30.3h-4.4v14c0,1.6,0.4,3.1,1.2,4.3s1.9,2.2,3.2,2.9s2.8,1.1,4.5,1.1
		s3.2-0.4,4.5-1.1c1.4-0.7,2.4-1.7,3.2-2.9s1.2-2.7,1.2-4.3v-14h-4.3v13.9H218.6z"/>
	<path class="st0" d="M167.1,44.2c0,0.7-0.2,1.4-0.6,2c-0.4,0.6-1,1.2-1.7,1.6s-1.5,0.6-2.4,0.6c-0.8,0-1.6-0.2-2.3-0.6
		s-1.2-0.9-1.7-1.6c-0.4-0.6-0.6-1.3-0.6-2V30.3h-4.4v14c0,1.6,0.4,3.1,1.2,4.3s1.9,2.2,3.2,2.9s2.8,1.1,4.5,1.1s3.2-0.4,4.5-1.1
		s2.4-1.7,3.2-2.9s1.2-2.7,1.2-4.3v-14h-4.1V44.2z"/>
	<path class="st0" d="M119.3,40.7c0.6-0.4,1.2-0.9,1.6-1.5c0.7-0.9,1-2,1-3.4c0-1.8-0.7-3.2-2-4.2c-1.4-0.9-3.2-1.4-5.5-1.4h-6.5
		v22.1h7.4c1,0,1.9-0.1,2.8-0.3s1.7-0.6,2.5-1.1s1.3-1.2,1.7-2c0.4-0.8,0.6-1.8,0.6-3c0-1.3-0.4-2.4-1.2-3.3
		C121.1,41.8,120.3,41.2,119.3,40.7z M112.3,34.5h2.3c0.9,0,1.5,0.2,2.1,0.6c0.5,0.4,0.8,1,0.8,1.7s-0.2,1.2-0.6,1.8
		c-0.4,0.5-1,0.8-1.9,0.8h-2.6v-4.9C112.4,34.5,112.3,34.5,112.3,34.5z M118,47.2c-0.3,0.4-0.7,0.6-1.2,0.8s-1.1,0.3-1.7,0.3h-2.8
		v-4.8h2.5c0.6,0,1.2,0.1,1.8,0.2c0.6,0.1,1,0.4,1.4,0.7s0.5,0.8,0.5,1.5C118.5,46.4,118.3,46.9,118,47.2z"/>
	<path class="st0" d="M145.7,33.4c-1-1-2.3-1.9-3.6-2.5c-1.4-0.6-2.8-0.9-4.4-0.9c-1.6,0-3,0.3-4.4,0.9s-2.6,1.4-3.6,2.5
		s-1.8,2.3-2.4,3.6c-0.6,1.4-0.9,2.8-0.9,4.3c0,1.6,0.3,3,0.9,4.4c0.6,1.4,1.4,2.6,2.4,3.6s2.2,1.8,3.6,2.4c1.4,0.6,2.8,0.9,4.4,0.9
		c1.5,0,3-0.3,4.4-0.9c1.4-0.6,2.6-1.4,3.6-2.4c1.1-1,1.9-2.2,2.5-3.6s0.9-2.8,0.9-4.4c0-1.5-0.3-3-0.9-4.3
		C147.6,35.7,146.8,34.5,145.7,33.4z M144,44.1c-0.3,0.8-0.8,1.6-1.4,2.2c-0.6,0.6-1.3,1.2-2.1,1.5s-1.7,0.5-2.6,0.5
		c-1,0-1.9-0.2-2.7-0.5c-0.8-0.4-1.6-0.9-2.2-1.5c-0.6-0.7-1.1-1.4-1.5-2.2c-0.4-0.9-0.5-1.8-0.5-2.7c0-1,0.2-1.9,0.5-2.8
		s0.8-1.6,1.4-2.3c0.6-0.6,1.3-1.2,2.2-1.5c0.8-0.4,1.7-0.5,2.7-0.5s1.9,0.2,2.7,0.5c0.8,0.4,1.5,0.9,2.1,1.5
		c0.6,0.7,1.1,1.4,1.4,2.3c0.3,0.9,0.5,1.8,0.5,2.8C144.6,42.3,144.4,43.2,144,44.1z"/>
	<polygon class="st0" points="175.6,34.5 180.8,34.5 180.8,52.4 185.1,52.4 185.1,34.5 190.5,34.5 190.5,30.3 175.6,30.3 	"/>
</g>
</svg>
