<?xml version="1.0" encoding="utf-8"?>
<!-- Generator: Adobe Illustrator 26.0.3, SVG Export Plug-In . SVG Version: 6.00 Build 0)  -->
<svg version="1.1" id="buttom" xmlns="http://www.w3.org/2000/svg" xmlns:xlink="http://www.w3.org/1999/xlink" x="0px" y="0px"
	 viewBox="0 0 325.8 89.6" style="enable-background:new 0 0 325.8 89.6;" xml:space="preserve">
<style type="text/css">
	.st0{fill:#1D1D1B;}
</style>
<path id="line" class="st0" d="M281.5,1.5H44.2C19.8,1.5-0.1,20.8-0.1,44.6s19.9,43.1,44.3,43.1h237.3c24.5,0,44.3-19.4,44.3-43.1
	C325.8,20.8,306,1.5,281.5,1.5z M281.5,84.9H44.2c-22.8,0-41.4-18-41.4-40.2C2.9,22.4,21.4,4.4,44.2,4.4h237.3
	c22.8,0,41.4,18,41.4,40.2S304.3,84.9,281.5,84.9z"/>
<path id="text" d="M79.3,37.8c0,0.5,0.2,1,0.6,1.4c0.4,0.4,0.9,0.8,1.6,1.1c0.6,0.3,1.3,0.6,2,0.9c0.6,0.2,1.3,0.5,1.9,0.9
	c0.6,0.3,1.2,0.7,1.7,1.2c0.5,0.5,0.9,1.1,1.2,1.8c0.3,0.7,0.5,1.6,0.5,2.7c0,1.1-0.3,2.2-0.9,3.1s-1.4,1.7-2.5,2.3
	c-1.1,0.6-2.5,0.9-4.1,0.9c-0.8,0-1.7-0.1-2.6-0.3c-0.9-0.2-1.7-0.4-2.6-0.8c-0.8-0.3-1.6-0.8-2.4-1.3l1.9-3.4
	c0.5,0.4,1.1,0.7,1.7,1c0.6,0.3,1.2,0.5,1.8,0.7c0.6,0.2,1.2,0.2,1.7,0.2s1-0.1,1.6-0.2c0.5-0.1,1-0.4,1.3-0.8
	c0.3-0.4,0.5-0.9,0.5-1.5c0-0.4-0.1-0.8-0.4-1.2c-0.3-0.4-0.7-0.7-1.2-1s-1-0.6-1.6-0.8c-0.7-0.3-1.4-0.6-2.1-0.9
	c-0.7-0.3-1.4-0.8-2-1.2c-0.6-0.5-1.1-1.1-1.5-1.8c-0.4-0.7-0.6-1.6-0.6-2.7c0-1.3,0.3-2.4,0.9-3.3c0.6-0.9,1.4-1.7,2.4-2.2
	c1-0.5,2.2-0.9,3.6-0.9c1.8,0,3.2,0.2,4.3,0.6c1.1,0.4,2.1,0.9,3,1.5l-1.6,3.3c-0.8-0.5-1.7-0.8-2.6-1.1c-0.9-0.3-1.7-0.5-2.4-0.5
	c-0.9,0-1.7,0.2-2.2,0.6S79.3,37,79.3,37.8z M107.8,40.7h-9.9v-8.9h-4.4v22.1h4.4v-9h9.9v9h4.4V31.7h-4.4V40.7z M138.7,38.5
	c0.6,1.4,0.9,2.8,0.9,4.3c0,1.6-0.3,3-0.9,4.4s-1.4,2.6-2.5,3.6c-1,1-2.3,1.8-3.6,2.4c-1.4,0.6-2.8,0.9-4.4,0.9
	c-1.6,0-3-0.3-4.4-0.9c-1.4-0.6-2.6-1.4-3.6-2.4c-1-1-1.8-2.2-2.4-3.6c-0.6-1.4-0.9-2.8-0.9-4.4c0-1.5,0.3-3,0.9-4.3
	c0.6-1.4,1.4-2.6,2.4-3.6c1-1,2.2-1.9,3.6-2.5c1.4-0.6,2.8-0.9,4.4-0.9c1.5,0,3,0.3,4.4,0.9c1.4,0.6,2.6,1.4,3.6,2.5
	C137.2,35.9,138.1,37.1,138.7,38.5z M135,42.8c0-1-0.2-1.9-0.5-2.8c-0.4-0.9-0.8-1.6-1.4-2.3c-0.6-0.6-1.3-1.2-2.1-1.5
	c-0.8-0.4-1.7-0.5-2.7-0.5c-1,0-1.9,0.2-2.7,0.5c-0.8,0.4-1.5,0.9-2.2,1.5c-0.6,0.7-1.1,1.4-1.4,2.3s-0.5,1.8-0.5,2.8
	c0,1,0.2,1.9,0.5,2.7c0.3,0.8,0.8,1.6,1.5,2.2c0.6,0.6,1.4,1.2,2.2,1.5c0.8,0.4,1.7,0.5,2.7,0.5c0.9,0,1.8-0.2,2.6-0.5
	s1.5-0.9,2.1-1.5c0.6-0.7,1.1-1.4,1.4-2.2C134.9,44.7,135,43.8,135,42.8z M158.6,35.2c0.7,1.1,1,2.4,1,3.9c0,0.9-0.1,1.8-0.4,2.7
	s-0.7,1.7-1.3,2.5c-0.6,0.7-1.4,1.3-2.4,1.8c-1,0.5-2.2,0.7-3.6,0.7h-3.1v7h-4.4V31.7h6.7c1.8,0,3.4,0.3,4.6,0.9
	C157,33.3,157.9,34.1,158.6,35.2z M155.2,39.3c0-0.2,0-0.5-0.1-0.9c-0.1-0.4-0.2-0.7-0.4-1.1c-0.2-0.4-0.6-0.7-1-1
	c-0.4-0.3-1.1-0.4-1.8-0.4h-3.1v6.7h3.1c0.7,0,1.2-0.1,1.6-0.3c0.4-0.2,0.8-0.5,1-0.9c0.2-0.4,0.4-0.7,0.5-1.1
	C155.2,39.9,155.2,39.6,155.2,39.3z M189.8,45l-15.4-14.2h-0.2v23h4.4l-0.1-13.1l15.4,14h0.1v-23h-4.4L189.8,45z M220.7,38.5
	c0.6,1.4,0.9,2.8,0.9,4.3c0,1.6-0.3,3-0.9,4.4s-1.4,2.6-2.5,3.6s-2.3,1.8-3.6,2.4s-2.8,0.9-4.3,0.9c-1.6,0-3-0.3-4.4-0.9
	c-1.4-0.6-2.6-1.4-3.6-2.4c-1-1-1.8-2.2-2.4-3.6c-0.6-1.4-0.9-2.8-0.9-4.4c0-1.5,0.3-3,0.9-4.3c0.6-1.4,1.4-2.6,2.4-3.6
	c1-1,2.2-1.9,3.6-2.5c1.4-0.6,2.8-0.9,4.4-0.9c1.5,0,3,0.3,4.3,0.9c1.4,0.6,2.6,1.4,3.6,2.5C219.3,35.9,220.1,37.1,220.7,38.5z
	 M217.1,42.8c0-1-0.2-1.9-0.5-2.8c-0.4-0.9-0.8-1.6-1.4-2.3c-0.6-0.6-1.3-1.2-2.1-1.5c-0.8-0.4-1.7-0.5-2.7-0.5
	c-1,0-1.8,0.2-2.7,0.5s-1.5,0.9-2.2,1.5c-0.6,0.7-1.1,1.4-1.4,2.3s-0.5,1.8-0.5,2.8c0,1,0.2,1.9,0.5,2.7c0.3,0.8,0.8,1.6,1.5,2.2
	c0.6,0.6,1.4,1.2,2.2,1.5s1.7,0.5,2.7,0.5c0.9,0,1.8-0.2,2.6-0.5c0.8-0.4,1.5-0.9,2.1-1.5c0.6-0.7,1.1-1.4,1.4-2.2
	C216.9,44.7,217.1,43.8,217.1,42.8z M251.5,31.9h-4.7l-3.7,12.3l-5-12.3h-4.3l1.7,4.4l-3.4,8.4l-4.3-12.8h-5.1l8.9,22.9l6.1-13.1
	l5.2,13.1L251.5,31.9z"/>
</svg>
