<?xml version="1.0" encoding="utf-8"?>
<!-- Generator: Adobe Illustrator 26.0.3, SVG Export Plug-In . SVG Version: 6.00 Build 0)  -->
<svg version="1.1" id="label" xmlns="http://www.w3.org/2000/svg" xmlns:xlink="http://www.w3.org/1999/xlink" x="0px" y="0px"
	 viewBox="0 0 480 487" style="enable-background:new 0 0 480 487;" xml:space="preserve">
<style type="text/css">
	.st0{fill:#1E97D5;}
	.st1{fill:#DBC288;}
	.st2{fill:#E52942;}
	.st3{fill:#FFFFFF;}
</style>
<g id="Camada_1_00000034089952865108404420000014523219579617923501_">
	<g>
		<rect class="st0" width="480" height="487"/>
	</g>
</g>
<g id="Original">
	<g id="Label">
		<g id="raio">
			<path class="st1" d="M248.3,100.9l35.3-30.1l19.8,41.6C286.4,105.5,267.8,101.6,248.3,100.9z M235.4,100.9L200,70.7l-19.8,41.6
				C197.4,105.5,216,101.6,235.4,100.9z M167.9,117.6l-44.3-13.1l-1.1,45.3C135.7,136.8,151,125.9,167.9,117.6z M73.2,268.5
				c0-15.9,2.2-31.3,6.4-46l-37.7,22.9l31.4,29.5C73.2,272.8,73.2,270.6,73.2,268.5z M441.9,245.4l-37.7-22.9
				c4.2,14.6,6.4,30,6.4,46c0,2.1-0.1,4.3-0.1,6.4L441.9,245.4z M399,207.1l17-40.7l-45-5.9C382.7,174.4,392.2,190.1,399,207.1z
				 M361.2,149.9l-1.1-45.3l-44.3,13.1C332.7,125.9,348,136.8,361.2,149.9z M112.8,160.5l-45,5.9l17,40.7
				C91.6,190.1,101.1,174.4,112.8,160.5z M74.9,293.1l-24.3,35.1L90.2,342C82.7,326.8,77.5,310.4,74.9,293.1z M393.6,342l39.5-13.9
				l-24.3-35.1C406.3,310.4,401.1,326.8,393.6,342z M288.3,429.8l35.3,19.2l9.4-39.3C319.4,418.5,304.4,425.2,288.3,429.8z
				 M350.6,396.9l40.8,3.3l-7.6-40.7C374.6,373.5,363.4,386.1,350.6,396.9z M100,359.5l-7.6,40.7l40.8-3.3
				C120.4,386.1,109.2,373.5,100,359.5z M150.6,409.7l9.4,39.3l35.3-19.2C179.4,425.2,164.3,418.5,150.6,409.7z M241.9,436.3
				c-8.3,0-16.5-0.7-24.5-1.8l24.5,31.7l24.5-31.7C258.4,435.7,250.2,436.3,241.9,436.3z"/>
		</g>
		<g id="circulo">
			<path class="st1" d="M242.6,429.2c-87.6,0-159-71.7-159-159.9s71.3-159.9,159-159.9s159,71.7,159,159.9
				C401.6,357.4,330.3,429.2,242.6,429.2z M242.6,114.6C157.9,114.6,89,184,89,269.2s68.9,154.6,153.7,154.6s153.7-69.3,153.7-154.6
				S327.4,114.6,242.6,114.6z"/>
		</g>
		<g id="Molson">
			<path id="Molson_x5F_red" class="st2" d="M210.1,293.4c-10,0-18.1-7.3-20.2-18.2c-1.4-7.5-0.3-15.3,3.5-24.4
				c3.4-8.2,7.8-13.7,13.8-17.3c3.8-2.3,7.9-3.5,12-3.5c1.7,0,3.4,0.2,5.1,0.6c3.4,0.7,6.1,2.7,7.8,5.4c1,1.8,1.6,3.7,1.5,5.8
				c2.2,2,3.5,4.4,4.4,6.5c0.2,0,0.5-0.1,0.7-0.1c0.5-0.1,1.3-0.3,1.8-0.4c0.1-0.5,0.3-1.2,0.4-1.8c4.3-19.8,12.6-37.2,24.8-51.7
				c3.4-4.1,8.4-9.2,15.3-11.9c1.6-0.7,3.1-1,4.5-1.2c0.7-0.1,1.5-0.1,2.1-0.1c4.1,0,9.3,1.8,10.7,10c0.9,5.8-0.3,11.2-1.5,15.3
				c-2,6.8-5.3,13.5-10.3,21.1c-4.7,7.2-11.1,16.4-19.2,24.5c-1.3,1.4-2.8,2.5-4.2,3.6c-0.9,0.7-1.8,1.4-2.5,2l0,0
				c0.2,1.5,0.5,3.1,0.9,4.3c0.5,1.2,1.3,1.8,2.4,1.8c0.5,0,0.8-0.1,1.4-0.3c4.1-1.3,7.3-4.5,10.8-8.1c6.3-6.7,11.7-14.5,16.9-22
				c1.4-2,2.9-4.1,4.3-6.1c1.4-2,3-3.8,4.5-5.3c1.8-1.7,3.9-2.5,6.5-2.5c1.1,0,2.3,0.2,3.5,0.5c3.3,0.9,5.1,3.7,4.4,7.3
				c0,0.4-0.1,1.1-0.6,1.9c-0.9,1.6-0.7,3.1,0.9,6.2c0.6,1,1,2,1.6,3.1c0.6,1,1,2,1.6,3c1.3,2.6,2.6,5.1,3.9,7.8
				c1.9-1.4,3.3-3,4.5-4.7c0.5-0.7,0.7-1.9,1.1-3.2c0.2-0.6,0.3-1.1,0.5-1.7c2.9-10.1,8.1-17.4,15.7-22.2c2.5-1.6,6.3-3.6,11-3.6
				c1.3,0,2.5,0.2,3.8,0.5c4,1,6.8,4.1,7.3,8c0.1,1,0,2-0.3,2.9c0.2,0.1,0.3,0.1,0.5,0.2c1.5,0.5,3,1.3,4.4,2.3
				c1.3,0.9,2.4,1.4,3.4,1.4c0.4,0,1.5,0,3.1-1.8c2.5-2.8,4.9-6,7.9-10.4c1-1.5,2.9-4.3,6.2-4.3c1.7,0,3.3,0.7,4.4,1.3
				c0.7,0.4,1.2,0.7,1.8,1c1.9,1.2,3.2,2.5,3.9,4c0.3-0.3,0.5-0.6,0.7-0.9c3-3.3,6.2-6.5,9.6-9.5c2.2-2,4.7-2.9,7.3-2.9
				c2.2,0,4.6,0.7,6.9,2.1c8.6,5.3,8.5,9.5,5.1,16.9c-1.9,4.1-3.4,8.6-5,12.8c-0.2,0.6-0.4,1.1-0.6,1.7c0.8-0.4,1.8-0.7,2.8-0.7
				c1.4,0,2.7,0.5,3.9,1.4c4.9,3.6,4.3,7.6,3.5,9.7c-0.9,2.4-2.1,4.5-3.4,6c-2.2,2.6-4.6,5.1-6.9,7.5l-1.6,1.7
				c-1.3,1.4-2.9,2.1-4.7,2.1c-1.6,0-3.1-0.6-4.4-1.8c-5.1-4.4-8-9.2-8.7-14.8c-0.7-4.6,0.3-8.8,1.4-12.5c-3,3.6-5.6,7.8-7.9,12.6
				c-1.9,3.7-3.6,7.7-5.3,11.5c-0.6,1.3-1.1,2.6-1.8,3.9c-0.6,1.1-2.1,4.7-6,4.7c-1.3,0-2.6-0.5-4.2-1.3c-1.6-0.9-2.9-2-4.1-3
				c-2.9-2.4-3.9-5.8-3.1-9.6c0.6-2.1,1.1-4.4,1.6-6.5c0.3-1.1,0.6-2.2,0.8-3.3c-0.7,0.2-1.5,0.5-2.2,0.6c-0.1,0-0.2,0-0.2,0.1
				c0,0.1,0,0.2-0.1,0.4c-1.9,9.9-7,17.9-15.3,24c-3.6,2.6-7.8,3.9-12.5,3.9c-1.5,0-3-0.1-4.5-0.4c-5-0.8-8.8-4.1-11.9-9.9
				c-0.2-0.4-0.4-0.7-0.6-1.1c-1.2,1.1-2.4,2.2-3.6,3.3c-2.7,2.4-5.4,4.9-8.2,7.3c-4.6,3.9-9.2,5.9-14,5.9c-2.4,0-4.7-0.5-7.2-1.5
				c-2.6-1.1-4.7-3.1-6.4-4.7c-2.2-2.1-2.6-5.3-1.1-8.3c0.4-0.7,0.7-1.3,1-2c0.6-1.1,1.1-2.2,1.8-3.3c-0.8,1.1-1.6,2.1-2.4,3.3
				c-4.5,5.9-9.4,11.8-15.5,16.6c-4.7,3.6-9.5,5.4-14.3,5.4c-2.1,0-4.2-0.4-6.3-1c-6-2-10.2-6.6-13-14c-0.7-1.9-1.1-3.7-1.5-5.5
				c-0.9,0.2-1.9,0.4-2.8,0.7c-1.9,8.5-6.5,15.7-13.9,21.8C220,291.6,215.1,293.4,210.1,293.4z M215.2,250.2c-4.6,5-6.6,11-6,17.5
				c0.1,1.1,0.6,3.8,3,3.8l0,0c0.9,0,2-0.4,3.2-1.2c2.6-1.9,4.5-4.7,5.9-8.8c-0.2-0.2-0.5-0.3-0.7-0.5c-0.6-0.4-1.2-0.7-1.9-1.3
				C215.4,256.9,214.3,253.6,215.2,250.2L215.2,250.2z M300.1,256.1c1.2,0,3.6,0.5,5.4,3.7c0.4,0.7,0.7,1,0.7,1.1
				c0.1,0,0.2,0,0.4-0.1c0.6-0.2,0.7-0.9,0.6-1.4c-0.2-1.5-0.6-3.1-1-4.5c-0.8-2.2-1.9-4.6-3-6.9l-1.1,1.7c-1.8,2.5-3.5,5-5.4,7.6
				C298,256.3,299.3,256.1,300.1,256.1z M355.8,230.9c-2,1.2-3.6,3.1-4.7,5.5c-2,4.5-3,8.7-2.8,12.7c0.1,1.4,0.4,2.9,0.9,4.1
				c0.4,0.8,1.2,1.4,2.1,1.4c0.3,0,0.6-0.1,0.9-0.2c1-0.4,2-0.9,2.7-1.5c2.1-1.9,3.8-4.3,5-7.3c-2-1.3-3.4-2.6-4.5-4.1
				c-1.3-1.9-1.8-4.7-1.2-7C354.6,233.4,355.1,232.2,355.8,230.9z M275.6,211c-0.8,0.7-1.7,1.6-2.3,2.3c-3.5,4.5-6.4,9.6-8.8,15.7
				c4-5,7.3-10,10-15.1C274.8,213.1,275.3,212.1,275.6,211z M169.6,333.8c5.5-7.7,11.1-15.5,16.4-23.1l1.1-1.6
				c0.5-0.7,1.1-1.7,1.5-2.8c0.7-2.2,0.9-5.6-2.2-9.1c-1.4-1.6-3-2-4.1-2c-0.4,0-0.7,0-1.1,0.1c0.3-1.3,0.6-2.7,0.7-4
				c0.9-4.8,1.9-9.9,3.3-14.5c4.9-17.2,11.3-33.7,19.4-53.2c1.4-3.3,2.9-6.7,4.3-10c1.6-3.5,3.2-7.3,4.7-10.9
				c1.4-3.4,1.3-7.6-0.3-11.4c-1.7-3.9-4.7-7-8.3-8.5c-0.8-0.3-1.7-0.6-2.6-0.6c-0.2,0-0.5,0-0.7,0c-3.9,0-6.6,2.4-8.2,3.9
				c-7,6.4-12.8,13.7-17.2,19.3c-5.3,6.8-10.4,14.1-15.5,22c2.1-7.2,4.3-14.5,6.3-21.8c2.2-7.9-1.5-14.7-9.5-17.3
				c-1.2-0.4-2.4-0.7-3.5-0.7c-2.1,0-4.1,0.7-5.7,2.2c-0.5,0.4-0.8,0.7-1.3,1.2c-1.7,1.6-3.4,3.2-4.9,5.1
				c-6.1,8-12.2,16.2-18.1,24.3c0.8-4.7,1.5-9.4,1.8-14.2c0.3-5.6-1.2-10-4.6-13.7c-2.3-2.5-4.8-3.8-7.4-3.8c-2.7,0-5.2,1.3-7.6,4
				c-9.5,10.6-20.6,20.3-32.9,28.7l0.8-6.9l-6,3c-0.3,0.1-0.5,0.2-0.6,0.3c-0.5,0.2-1,0.5-1.6,0.9c-1,0.8-2,1.7-3,2.5
				c-3.2,2.7-6.4,5.4-9.6,8.3c-1.9,1.8-2.9,4.2-3.3,6c-1.1,4-0.1,7.9,2.8,10.8c1.5,1.5,3.4,2.2,5.5,2.2c1.9,0,3.5-0.7,4.7-1.1
				l0.7-0.3c2.5-1,5.2-2.1,7.7-3.5C83,237.5,94,230.1,105,221.2c-1,6.7-2.7,13.4-4.9,19.9c-5.3,15.3-12.6,29.6-20.7,45.4
				c-1,2-2.2,4.3-3.3,6.7c-1.2,2.8-1,5.8,0.6,8.2c2.4,3.9,6,6.2,9.8,6.2c3.9,0,7.4-2.3,9.7-6.4c0.1-0.1,0.1-0.2,0.2-0.3
				c11.3-20.7,24.6-41.7,41.7-66.1c0.7-0.9,1.3-1.8,2-2.7c-3.6,10.1-7.6,21.3-12.5,34.5c-0.8,2.4-1.8,4.7-2.6,7.1
				c-1.4,3.6-2.8,7.3-4.1,11.1c-1.9,5.5-0.7,9.4,4.2,12.7c1.9,1.3,3.9,2.3,5.9,3.2c1.3,0.6,2.6,0.7,3.9,0.7c2,0,5-0.7,7.7-4
				c0.9-1.2,2-2.6,2.8-4.2c6.3-13,14-25.7,21.5-37.8l2.4-4c0.7-1.1,1.4-2.3,2-3.4c0.6-0.8,1-1.8,1.6-2.6c-4.6,12.4-9,25.6-12.7,39.1
				l-0.1,0.3c-3,11-6,22.2-4.8,34.3c0.5,4.7,1.4,9.2,2.6,13.1c1.2,3.8,3.2,5.7,5.8,5.7C166.4,337.8,168.3,335.6,169.6,333.8z"/>
			<path id="Molson_x5F_white" class="st3" d="M287.8,184.8c4.2,0,6.4,2.2,7.2,7c0.7,4.7-0.1,9.1-1.4,13.6
				c-2.1,7.3-5.8,13.9-9.9,20.2c-5.6,8.5-11.5,16.7-18.7,24c-2,2-4.4,3.6-6.5,5.6c-0.6,0.6-1.4,1.5-1.3,2.1c0.2,2.1,0.5,4.3,1.3,6.2
				c1.1,2.6,3.2,3.9,5.7,3.9c0.7,0,1.6-0.1,2.4-0.4c5-1.7,8.7-5.3,12.2-9c8.3-8.7,14.6-18.9,21.5-28.7c1.2-1.7,2.5-3.3,4-4.7
				c1.2-1.1,2.6-1.6,4.1-1.6c0.8,0,1.8,0.2,2.7,0.4c1.6,0.5,2.1,1.6,1.9,3.2c-0.1,0.3,0,0.5-0.2,0.7c-2,3.4-0.7,6.6,0.8,9.7
				c1,2,2.1,4,3.2,6c1.9,3.7,3.7,7.4,5.7,11.3c3.3-2,6.5-4.5,8.7-7.8c1.1-1.7,1.4-3.9,2-5.9c2.4-8.4,6.6-15.4,14.1-20.2
				c2.9-1.8,5.8-3.1,9-3.1c0.9,0,2,0.1,3,0.4c2.5,0.7,4.3,2.6,4.6,4.9c0.2,1.7-0.5,2.7-2,3c-1.1,0.2-2.2,0.2-3.3,0.5
				c-5,1.3-8.6,4.3-10.7,8.9c-2,4.6-3.3,9.3-3.2,14.4c0.1,1.8,0.5,3.7,1.2,5.4c0.9,2.2,3.1,3.5,5.4,3.5c0.7,0,1.4-0.1,2-0.4
				c1.4-0.5,2.8-1.2,3.8-2.1c3.1-2.6,5-6,6.4-9.8c0.6-1.5,0.1-2.2-1.3-3c-1.5-0.9-3.1-2-4-3.4c-0.7-1-1-2.8-0.7-4
				c0.6-2,1.6-3.7,2.7-5.4c0.9-1.4,2.1-2,3.6-2c0.7,0,1.6,0.2,2.5,0.5c1.2,0.4,2.4,1.1,3.4,1.9c1.9,1.4,3.7,2,5.5,2
				c2,0,3.9-0.9,5.8-2.9c3-3.3,5.7-7.1,8.2-10.8c1.2-1.9,2-2.7,3.3-2.7c0.7,0,1.6,0.3,2.8,0.9c0.6,0.3,1,0.6,1.5,0.9
				c2.9,1.8,3.6,3.6,3,7c-0.3,1.6-0.7,3.1-1.2,5.1c2.7-3.5,4.8-6.8,7.4-9.7c2.9-3.3,6-6.3,9.3-9.1c1.6-1.4,3.3-2,5-2
				c1.6,0,3.3,0.6,5,1.6c6.5,4,6.6,6,3.7,12.4c-2.5,5.4-4.4,11.1-6.4,16.7c-0.4,1-0.4,2.2-0.3,3.3c0,1.2,0.5,1.9,1.2,1.9
				c0.4,0,0.8-0.2,1.4-0.5c0.7-0.4,1.3-0.8,2-1.3c0.8-0.7,1.7-1.3,2.7-1.3c0.6,0,1.1,0.2,1.8,0.7c2.2,1.7,3.2,3.3,2.3,5.5
				c-0.7,1.8-1.7,3.6-2.9,5.1c-2.6,3.2-5.5,6.1-8.3,9.1c-0.7,0.7-1.4,1-2,1c-0.7,0-1.5-0.3-2.1-0.8c-3.9-3.3-6.8-7.3-7.5-12.7
				c-0.7-4.7,0.7-9,2-13.3c0.8-2.7,1.9-5.4,2.7-8.1c0.1-0.4,0.2-0.7,0.2-1.1c-0.1-0.2-0.3-0.3-0.4-0.5c-1.3,0.9-2.7,1.8-3.8,2.8
				c-5.9,5.5-10.3,12-14,19.2c-2.5,5.1-4.7,10.4-7.2,15.6c-0.7,1.8-1.6,2.6-2.7,2.6c-0.7,0-1.5-0.3-2.4-0.8
				c-1.3-0.7-2.4-1.7-3.6-2.6c-1.9-1.6-2.4-3.6-1.9-6c1.2-4.8,2.4-9.6,3.5-14.4c0.2-0.7,0.2-1.4,0.4-2c-2.7,1-5.2,2.2-7.8,2.8
				c-2,0.5-2.7,1.2-3.1,3.3c-1.7,9.1-6.5,16.3-14,21.7c-3.3,2.3-6.8,3.3-10.4,3.3c-1.3,0-2.6-0.1-3.9-0.4c-4.5-0.7-7.3-4.1-9.3-8
				c-0.8-1.6-1.5-3.3-2.4-5.2c-1.1,0.9-2,1.7-3,2.4c-4.2,3.7-8.3,7.6-12.5,11.3c-3.5,3.1-7.4,5-11.6,5c-1.9,0-3.8-0.4-5.8-1.2
				c-2-0.8-3.7-2.5-5.3-4c-1.1-1-1.1-2.6-0.4-4c1.2-2.2,2.2-4.7,3.6-6.8c0.7-1.1,1.4-1.6,2.1-1.6c0.8,0,1.6,0.7,2.3,1.9
				c1.1,2,2.3,3,3.8,3c0.4,0,0.8-0.1,1.3-0.2c2-0.6,3.4-2.5,3.2-5.1c-0.2-1.9-0.7-3.6-1.3-5.4c-1.2-3.1-2.6-6.1-4-9.2
				c-0.7-1.5-1.2-2.2-1.8-2.2c-0.6,0-1.2,0.7-2,2c-4.3,6-8.5,12-12.9,17.9c-4.4,5.8-9,11.4-14.9,15.9c-3.7,2.8-7.7,4.7-12.2,4.7
				c-1.7,0-3.4-0.3-5.2-0.8c-5.8-1.9-8.7-6.6-10.8-11.9c-1-2.7-1.5-5.6-2.2-8.5c-2.5,0.6-5.1,1.1-7.8,1.8c-0.4,0.1-0.7,0.8-0.8,1.3
				c-1.7,8.6-6.2,15.3-12.8,20.7c-3.8,3.1-8,4.6-11.9,4.6c-7.8,0-14.9-5.7-16.7-15.3c-1.5-7.8,0.3-15.2,3.3-22.3
				c2.6-6.3,6.2-12,12.3-15.6c3.3-2,6.6-3,10.2-3c1.4,0,2.9,0.2,4.4,0.5c4.8,1.1,7.4,5.1,6.3,9.4c2.8,1.7,4.3,4.4,5.3,7.3
				c0.3,0.8,0.7,1.3,1.4,1.3c0.2,0,0.3,0,0.5-0.1c0.7-0.2,1.5-0.2,2.3-0.4c4.1-0.7,4.2-0.9,5-4.8c4-18.7,11.7-35.5,24-50.1
				c3.9-4.6,8.3-8.7,14-10.9c1.1-0.5,2.4-0.8,3.6-0.9C286.6,184.8,287.2,184.8,287.8,184.8 M256.9,242c0.5-0.2,0.7-0.2,0.7-0.4
				c0.5-0.4,0.9-0.7,1.4-1.1c7.3-7.4,13.7-15.6,18.5-24.9c1.2-2.3,2-5,2.4-7.6c0.3-1.8-0.4-2.9-1.6-2.9c-0.5,0-1.1,0.2-1.8,0.7
				c-2.2,1.5-4.5,3.3-6.1,5.4c-6.1,7.6-9.9,16.6-12.5,26C257.6,238.6,257.3,240.2,256.9,242 M212,275.1c1.6,0,3.4-0.6,5.2-1.9
				c4.2-3,6.2-7.3,7.5-12c0.2-0.6-0.5-1.6-1-2.1c-0.8-0.8-2-1.3-2.9-2.1c-1.7-1.6-3-3.4-2.3-5.9c0.6-1.9,1.3-3.6,2-5.5
				c-0.8-0.4-1.8-0.7-2.7-0.7c-1.8,0-3.5,0.7-5.1,2.4c-5.3,5.8-7.8,12.7-7.3,20.5C205.9,272.5,208.6,275.1,212,275.1 M287.8,177.6
				c-0.8,0-1.7,0.1-2.5,0.2c-1.8,0.2-3.5,0.7-5.4,1.4c-7.7,3.1-13,8.6-16.7,12.9c-11.8,14-20.2,30.7-24.7,49.6
				c-0.4-0.5-0.7-0.9-1.2-1.4c-0.2-2.1-0.8-4.2-2-6c-2.1-3.5-5.7-6-10-7.1c-2-0.5-4-0.7-6-0.7c-4.8,0-9.5,1.3-13.9,4
				c-6.6,4-11.4,10-15.2,19c-4.1,9.8-5.2,18.1-3.7,26.4c2.3,12.7,11.9,21.1,23.6,21.1c5.9,0,11.4-2.1,16.4-6.1
				c6-4.9,10.3-10.7,13-17.2c3.2,7.9,8,12.7,14.7,15c2.4,0.8,4.9,1.2,7.4,1.2c5.6,0,11.1-2,16.5-6.1c3.6-2.8,6.9-6,9.8-9.2
				c0.5,1,1.2,2,2,2.7c1.9,1.9,4.3,4.1,7.4,5.4c2.8,1.2,5.7,1.8,8.5,1.8c5.6,0,11.1-2.2,16.3-6.8c2.9-2.4,5.6-5,8.3-7.4
				c0.1-0.1,0.3-0.2,0.4-0.3c3.3,5,7.6,7.9,12.7,8.8c1.8,0.3,3.4,0.5,5.1,0.5c5.4,0,10.2-1.6,14.5-4.7s7.7-6.6,10.4-10.6
				c0.7,1.9,2,3.5,3.7,4.9c1.3,1,2.8,2.3,4.6,3.3c1.3,0.7,3.4,1.9,6,1.9c2.8,0,6.6-1.2,9.1-6.8c0.6-1.3,1.2-2.6,1.8-3.9
				c1.8-4,3.4-7.7,5.2-11.3l0,0c1.1,6,4.3,11.3,9.8,15.9c2,1.7,4.3,2.6,6.7,2.6c2.7,0,5.3-1.1,7.3-3.3c0.6-0.6,1.1-1.1,1.6-1.7
				c2.3-2.4,4.7-5,7-7.7c1.6-2,3-4.3,4.1-7.1c0.9-2.4,2.4-8.6-4.7-13.9c-1.1-0.8-2.3-1.4-3.6-1.8c1.1-3.2,2.3-6.1,3.6-9
				c1.7-3.7,3.3-7.6,2-11.9c-1.3-4.7-5-7.3-8.6-9.5c-2.9-1.8-5.8-2.7-8.7-2.7c-3.4,0-6.8,1.3-9.7,3.7c-2.8,2.4-5.5,4.9-8,7.6
				c-0.7-0.6-1.3-1-2-1.5c-0.7-0.4-1.3-0.8-2-1.2c-1.5-0.8-3.5-1.7-6-1.7c-5.3,0-8,4.1-9.2,5.9c-2.9,4.3-5.2,7.3-7.5,10
				c-0.3,0.3-0.5,0.5-0.6,0.6c-0.2-0.1-0.7-0.3-1.2-0.7c-1-0.7-2-1.3-3.1-1.9c0-0.4,0-0.7-0.1-1c-0.6-5.4-4.5-9.7-9.9-11.1
				c-1.5-0.4-3.1-0.6-4.7-0.6c-5.5,0-10,2.4-12.8,4.2c-8.5,5.3-14,13.2-17.2,24.3c-0.2,0.7-0.4,1.3-0.5,1.9c-0.2,0.7-0.5,1.8-0.6,2
				c-0.2,0.2-0.3,0.5-0.5,0.7c-0.6-1.2-1.2-2.3-1.8-3.5c-0.6-1-1.1-2-1.6-3.1c-0.6-1-1-2-1.6-3c-0.9-1.9-1.1-2.5-1.1-2.8
				c0,0,0,0,0.1-0.1c0.7-1.3,0.9-2.5,1-3.1c1-5.3-1.9-9.9-7-11.3c-1.6-0.4-3.1-0.7-4.5-0.7c-3.4,0-6.5,1.2-8.9,3.5
				c-1.8,1.7-3.3,3.6-4.9,5.9c-1.5,2-2.9,4.2-4.3,6.2c-5.3,7.8-10.4,15.2-16.6,21.6c-3.1,3.3-5.8,5.9-8.9,7.1
				c-0.1-0.3-0.2-0.6-0.2-0.8c0.3-0.3,0.7-0.5,0.9-0.7c1.4-1.1,3-2.4,4.5-3.9c8.3-8.4,14.8-17.8,19.6-25c5.2-7.9,8.7-15,10.8-22.1
				c1.3-4.4,2.7-10.3,1.6-16.8C299.9,178.8,291.4,177.6,287.8,177.6L287.8,177.6z M351.9,250.7c-0.1-0.6-0.2-1.1-0.3-1.7
				c-0.1-1.9,0.1-3.7,0.6-5.7c0.1,0.1,0.1,0.2,0.2,0.3c0.7,1.1,1.8,2.1,2.9,3.2c-0.8,1.4-1.8,2.6-2.9,3.5
				C352.4,250.5,352.2,250.5,351.9,250.7L351.9,250.7z M212.7,267.8c0-0.1,0-0.2,0-0.3c-0.2-2.8,0.1-5.5,0.9-7.9
				c0.7,0.9,1.5,1.9,2.5,2.9c0.2,0.2,0.4,0.4,0.6,0.5c-0.9,2.1-2,3.5-3.5,4.6C213,267.6,212.8,267.7,212.7,267.8L212.7,267.8z
				 M201.8,185.9c0.1,0,0.3,0,0.4,0c0.6,0,1,0.2,1.6,0.4c5.6,2.2,8.8,9.7,6.6,15.2c-2.9,7-6,13.9-8.9,20.8
				c-7.3,17.6-14.3,35.3-19.5,53.6c-1.8,6.2-2.9,12.7-4.1,19.1c-0.3,1.2,0,2.5,0.3,3.7c0.2,0.7,0.7,1.2,1.3,1.2
				c0.3,0,0.6-0.1,0.9-0.3c0.7-0.4,1.4-0.7,2.1-0.7c0.5,0,0.9,0.2,1.4,0.7c1.4,1.6,2.2,3.4,1.5,5.6c-0.2,0.7-0.7,1.3-1,1.9
				c-5.9,8.3-11.6,16.5-17.5,24.7c-1.2,1.7-2.2,2.5-3.1,2.5c-0.9,0-1.8-1-2.4-3.2c-1.2-4-2-8.2-2.4-12.4
				c-1.2-11.4,1.9-22.4,4.7-33.3c5.4-19.9,12.6-39.3,20-58.5c0.3-0.7,0.5-1.7,0.7-2.4c-0.2-0.1-0.4-0.2-0.6-0.3
				c-0.7,0.7-1.3,1.4-2,2.1c-6.1,7.2-10.8,15.3-15.6,23.3c-8.5,13.8-17,27.5-24.1,42.1c-0.7,1.3-1.5,2.4-2.4,3.5
				c-1.4,1.8-3.1,2.7-4.9,2.7c-0.8,0-1.7-0.2-2.6-0.6c-1.8-0.7-3.5-1.7-5.1-2.8c-3.4-2.4-4.3-4.7-2.9-8.7c2.1-6,4.5-12.1,6.7-18.1
				c4.8-13.4,9.7-26.8,14.5-40.2c0.7-1.9,1.1-3.8,1.5-5.7c0.2-0.8-0.1-1.7-0.2-2.5c-0.7,0.5-1.7,0.7-2.1,1.3
				c-3.2,3.9-6.5,7.8-9.4,12c-15.1,21.5-29.4,43.5-42,66.7c0,0.1,0,0.1-0.1,0.2c-1.7,3.1-4.1,4.6-6.6,4.6c-2.4,0-4.9-1.5-6.8-4.6
				c-1-1.6-0.9-3.3-0.3-4.9c0.9-2.2,2-4.3,3.2-6.4c7.8-14.9,15.4-29.9,20.9-45.9c3-8.7,5-17.7,6-26.9c0.1-0.7,0-1.5,0-2.5
				c-12.5,10.7-25.5,20-39.5,27.8c-2.6,1.4-5.4,2.5-8.1,3.6c-1.1,0.5-2.2,0.8-3.3,0.8c-1,0-2.1-0.4-3.1-1.2c-2-2-2.6-4.6-1.9-7.3
				c0.5-1.6,1.2-3.3,2.3-4.4c4-3.7,8.3-7.2,12.5-10.7c0.3-0.3,0.7-0.4,1.5-0.7c-0.2,1.7-0.4,3.1-0.6,4.5c-0.2,1.2,0,1.9,0.7,1.9
				c0.3,0,0.7-0.1,1.2-0.4c1.4-0.7,2.8-1.3,4.1-2.2c12.4-8.5,23.6-18.1,33.7-29.4c1.7-1.9,3.3-2.8,4.9-2.8c1.6,0,3.3,0.8,4.9,2.6
				c2.9,3.2,3.8,6.9,3.6,11.1c-0.5,9.4-2.5,18.4-4.6,27.5c-0.1,0.7-0.2,1.2,0,2c2-2.9,3.9-5.8,6-8.6c7.1-9.6,14.1-19.1,21.3-28.6
				c1.7-2.1,3.8-3.9,5.8-5.9c1-0.9,2.1-1.3,3.3-1.3c0.8,0,1.6,0.2,2.4,0.5c6,2,8.8,6.9,7.2,12.9c-3.1,11-6.3,21.9-9.6,32.7
				c-1,3.6-2,7.3-3.2,10.8c-0.2,0.5-0.2,1-0.4,1.5c0.2,0.1,0.3,0.2,0.5,0.3c0.7-0.9,1.2-2,1.9-2.9c7.9-13.8,16.5-27.1,26.1-39.5
				c5.1-6.7,10.6-13.1,16.8-18.8C197.7,187.4,199.4,185.9,201.8,185.9 M69.8,221L69.8,221 M201.8,178.7c-5.3,0-8.7,3.2-10.6,4.8
				c-7.2,6.6-13.2,14-17.6,19.7c-1.1,1.4-2.1,2.9-3.3,4.3c0.1-0.3,0.2-0.6,0.2-0.8c2.7-9.8-2-18.4-11.8-21.7
				c-1.6-0.6-3.2-0.7-4.7-0.7c-3.1,0-5.9,1.1-8.1,3.2c-0.4,0.4-0.8,0.7-1.2,1.1c-1.8,1.6-3.7,3.3-5.4,5.6
				c-3.3,4.5-6.8,8.9-10.1,13.5c0-0.4,0-0.7,0.1-1.1c0.3-6.5-1.6-12-5.6-16.3c-3.1-3.3-6.4-4.9-10-4.9c-3.7,0-7.2,1.8-10.2,5.1
				c-7.6,8.6-16.3,16.4-25.8,23.5l0.7-5.5l-11.8,6c-0.2,0.1-0.4,0.2-0.5,0.2c-0.6,0.3-1.5,0.7-2.4,1.5c-1,0.8-2,1.7-3,2.5
				c-3.2,2.7-6.5,5.5-9.7,8.4c-2.5,2.3-3.7,5.5-4.4,7.7c-1.4,5.2,0,10.5,3.7,14.2c2.1,2.1,4.9,3.3,8,3.3c2.5,0,4.7-0.7,6-1.3
				l0.7-0.3c2.6-1.1,5.4-2.2,8.1-3.7c9-4.8,17.8-10.5,26.4-17c-0.8,3.3-1.9,6.8-3,10.1c-5.2,15.1-12.4,29.2-20.6,44.8
				c-1.1,2-2.3,4.5-3.3,7c-1.7,3.9-1.4,8,0.7,11.4c3.1,5,7.7,7.9,12.7,7.9c5.2,0,9.9-3,12.7-8.2c0.1-0.2,0.2-0.4,0.3-0.5
				c8.1-14.7,17.1-29.6,27.8-45.8c-1,2.8-2,5.7-3.2,8.7c-0.8,2.3-1.8,4.7-2.6,7.1c-1.4,3.6-2.8,7.3-4.1,11.2
				c-2.4,7-0.6,12.7,5.5,16.8c2.1,1.5,4.4,2.7,6.6,3.5c1.8,0.7,3.4,1,5.2,1c2.8,0,7-0.9,10.5-5.4c1.1-1.4,2.3-3,3.3-4.9
				c3.3-6.9,7.1-13.7,11-20.3c-0.9,3-1.8,6-2.6,9l-0.1,0.3c-3.1,11.3-6.2,22.9-4.9,35.6c0.6,5,1.4,9.7,2.7,13.8
				c2.2,7.2,6.7,8.2,9.1,8.2c4.9,0,7.8-4.1,8.8-5.5c5.6-7.7,11.2-15.6,16.6-23.3l1-1.5c0.6-0.8,1.4-2.1,2-3.8
				c0.8-2.5,1.6-7.5-3-12.6c-1-1.1-2.2-2-3.6-2.5c0-0.1,0-0.2,0-0.3c0.9-4.9,1.9-9.7,3.2-14.2c4.8-17,11.3-33.4,19.3-52.7
				c1.4-3.3,2.9-6.7,4.3-10c1.6-3.5,3.2-7.3,4.7-11c1.8-4.4,1.7-9.5-0.3-14.1c-2-4.8-5.8-8.6-10.2-10.4c-1.1-0.5-2.4-0.7-3.7-0.8
				C202.5,178.8,202.2,178.7,201.8,178.7L201.8,178.7z M69.8,213.9L69.8,213.9L69.8,213.9L69.8,213.9z"/>
		</g>
		<g id="gold">
			<path class="st1" d="M242.9,318.9v4.2c0,11.3-2.7,26.2-16.9,26.2s-18.8-15.3-18.8-27.1c0-12.3,3.9-27.6,18.8-27.6
				c8,0,13.3,5,15.5,12.6l-10.1,3.9c-0.5-2.7-1.3-6.8-5.3-6.8c-7.1-0.5-7.7,12.7-7.7,17.7c0,5.5,0.4,17.7,8,17.7
				c5.3,0,6.1-7.2,6.1-10.8h-6.6V319L242.9,318.9L242.9,318.9z M288.9,322c0,19.9-9.2,27.3-18.5,27.3c-9.3,0-18.5-7.4-18.5-27.3
				s9.2-27.3,18.5-27.3C279.7,294.6,288.9,302.1,288.9,322z M270.4,339.7c6.9,0,7.4-13.4,7.4-17.7c0-4.7-0.5-17.7-7.4-17.7
				c-6.9,0-7.4,12.9-7.4,17.7C262.9,326.2,263.4,339.7,270.4,339.7z M310.1,295.5v43.2H321v9.9h-21.3v-53H310.1z M331,348.5v-53h7.9
				c1.9,0,23.6-2.7,23.6,27c0,15.2-5.8,26.1-22.2,26.1L331,348.5L331,348.5z M352.1,322.4c0-6.8-2.1-17.5-10.7-17.5v34.2
				C349.8,339.5,352.1,329,352.1,322.4z"/>
		</g>
		<path id="text" class="st3" d="M180.3,138l3.4,7.7l3.9-1.8l-3.4-7.7l2.6-1.2l8.8,19.7l-2.6,1.2l-4.4-9.8l-3.9,1.8l4.4,9.8
			l-2.6,1.2l-8.8-19.7L180.3,138z M200.9,130.1l0.7,2.3l-4.6,1.5l2.1,6.4l4.1-1.4l0.7,2.3l-4.1,1.4l2.3,7l4.6-1.5l0.7,2.3l-7.3,2.4
			l-6.8-20.5L200.9,130.1z M211.8,127.2l9.3,20l-2.8,0.7l-1.8-3.9l-4.2,0.9l0.2,4.3l-2.7,0.7l-0.3-22.1L211.8,127.2z M214.5,139
			l-2.8-7.4h-0.1l0.8,11.1l3.3-0.7L214.5,139z M224.6,125l2.5,19l4.7-0.7l0.4,2.5l-7.5,1l-2.9-21.4L224.6,125z M238.6,145.3
			l-2.9,0.2l-1.2-21.6l2.9-0.2L238.6,145.3z M246.7,129.9l0.2,7.3l-0.2,7.9l-2.9-0.1l0.7-21.6l2.7,0.1l4.6,16.6l0.1-0.1l-0.5-8.7
			l0.2-7.7l2.9,0.1l-0.7,21.6l-2.6-0.1l-4.6-16.7l-0.1,0.1L246.7,129.9z M270.6,135.9l-0.1,0.4c-0.6,4.1-1,11.3-6.7,10.5
			c-5-0.7-4.9-5.7-4.1-11.7c0.8-6,2-11,7-10.2c3,0.5,4.3,2.1,4.6,5.1l-2.8,0.7c-0.1-1.5-0.3-2.9-2-3.2c-2.3-0.4-3,2.8-3.6,8
			c-1,7.4,0.1,8.5,1.3,8.7c1.1,0.2,2.4,0.2,3.2-4.9l0.2-1.2l-2.3-0.4l0.4-2.5L270.6,135.9z M294.6,131.8l-0.7,2.4l-4.7-1.5l-2,6.5
			l4.2,1.3l-0.7,2.4l-4.2-1.3l-2.9,9.4l-2.7-0.8l6.3-20.7L294.6,131.8z M300.1,133.8l3.2,1.4c2,0.8,4.8,2.2,2.8,7.2
			c-0.8,1.9-2.5,4.5-4.9,3.9l-0.5,11.3l-2.7-1.2l0.6-11.3h-0.1l-4.1,9.8l-2.6-1.1L300.1,133.8z M303,141.7c0.8-1.9,1.2-3.6-0.7-4.4
			l-0.5-0.2l-2.8,6.6C301,144.7,302.2,143.7,303,141.7z M318.6,154.7c-1.9,3.4-5.4,9.7-10.2,7.1c-4.8-2.6-1.5-9,0.4-12.5
			c1.9-3.4,5.4-9.7,10.2-7.1C323.9,145,320.4,151.4,318.6,154.7z M311.4,150.8c-2.2,4-3.7,7.5-1.8,8.7s4.1-2.1,6.2-6.1
			c2.2-4,3.7-7.5,1.8-8.7C315.8,143.6,313.6,146.8,311.4,150.8z M332.3,150.9l-6.6,14.4l0,0l0.6-0.7l3.7-3.7l7.1-6.6l2,1.5l-11,18.7
			l-2.2-1.7l4.3-6.9l2.2-3.3l1.6-2.3l0,0l-2.2,2.2l-8.7,8.3l-1.6-1.1l6.4-13.8h-0.1l-9.3,11.6l-2.2-1.6l14-16.5L332.3,150.9z
			 M357,172.2l-1.8,1.8l-2.2-2.3l-13.5,13.6l-2-2l13.5-13.5l-2.4-2.4l1.8-1.8L357,172.2z M358.8,191.1c-3,2.5-8.6,7-12.1,2.7
			c-3.5-4.3,2-8.9,5-11.3c3-2.5,8.6-7,12.1-2.7C367.3,184,361.8,188.7,358.8,191.1z M353.6,184.8c-3.5,2.9-6.2,5.6-4.8,7.3
			c1.4,1.8,4.6-0.5,8.1-3.3s6.2-5.6,4.8-7.3C360.3,179.7,357.2,181.9,353.6,184.8z M353.1,201.7l18-11.8l1.9,2.9
			c1.3,2,2.9,4.8-1.8,7.9c-3.6,2.4-6.3,2-8.6-1.8l-8,5.2L353.1,201.7z M370.6,193.6l-6,3.9c1.2,2.1,2.7,2,4.7,0.7
			c1.6-1,2.7-2.4,1.5-4.3L370.6,193.6z M278.2,385.8l0.6,2.4l-3.2,0.7l4.3,18.6l-2.8,0.7l-4.3-18.6l-3.3,0.7l-0.6-2.4L278.2,385.8z
			 M294.2,391.8c1.3,3.7,3.6,10.5-1.7,12.4c-5.2,1.9-7.6-4.9-8.9-8.7c-1.3-3.7-3.6-10.5,1.7-12.4
			C290.5,381.3,292.9,388.1,294.2,391.8z M286.5,394.5c1.5,4.4,3.1,7.8,5.2,7.1c2.1-0.7,1.2-4.5-0.4-8.7c-1.5-4.4-3.1-7.8-5.2-7.1
			C283.9,386.5,285,390.2,286.5,394.5z M307.1,373.2l1.2,2.1l-2.8,1.6l9.2,16.7l-2.5,1.4l-9.2-16.7l-3,1.7l-1.2-2.1L307.1,373.2z
			 M324,374.6c2.2,3.2,6.3,9.1,1.8,12.3s-8.7-2.7-10.9-5.9c-2.2-3.2-6.3-9.1-1.8-12.3S321.8,371.5,324,374.6z M317.4,379.4
			c2.6,3.7,5,6.7,6.9,5.4s-0.1-4.7-2.7-8.4c-2.6-3.7-5-6.7-6.9-5.4C312.9,372.3,314.7,375.6,317.4,379.4z M326.7,358l1.7,1.9
			l-3.6,3.2l4.5,5.1l3.3-2.9l1.7,1.9l-3.3,2.9l4.8,5.5l3.6-3.3l1.7,1.9l-5.8,5.1l-14.2-16.1L326.7,358z"/>
	</g>
</g>
<path id="título" class="st3" d="M184.7,36.7c0,12-5.6,16.5-11.2,16.5s-11.2-4.5-11.2-16.5s5.6-16.5,11.2-16.5
	S184.7,24.7,184.7,36.7z M173.5,47.3c4.2,0,4.5-8.1,4.5-10.6c0-2.8-0.3-10.6-4.5-10.6c-4.2,0-4.5,7.8-4.5,10.6
	C169,39.2,169.3,47.3,173.5,47.3z M188.1,52.7v-32h6.4c4,0,11.2,0.4,11.2,9.2c0,3.5-1.4,6.5-4.5,8.3l5.6,14.6H200l-5.6-14.8h-0.1
	v14.8H188.1z M194.4,34.4l1.1,0c2.9,0,4-1.9,4-4.6c0-2.3-1.1-4.2-4.3-4h-0.8V34.4z M216.9,20.7v32h-6.3v-32H216.9z M241.9,34.8v2.5
	c0,6.8-1.7,15.8-10.3,15.8c-8.6,0-11.4-9.2-11.4-16.3c0-7.4,2.4-16.7,11.4-16.7c4.9,0,8.1,3.1,9.4,7.6l-6.2,2.4
	c-0.3-1.6-0.8-4.1-3.2-4.1c-4.3-0.3-4.7,7.6-4.7,10.6c0,3.3,0.2,10.6,4.9,10.6c3.2,0,3.7-4.3,3.7-6.5h-4v-5.9H241.9z M251.6,20.7v32
	h-6.3v-32H251.6z M262.1,20.7L270,40l0.1-0.1c-0.4-1.5-0.5-3.2-0.5-4.8V20.7h6.3v32h-6l-7.8-19.3l-0.1,0.1l0.3,3.2l0,1.3v14.7h-6.3
	v-32H262.1z M292.5,20.7l7.7,32h-6.7l-1.2-5.4h-6.4l-1.1,5.4h-6.3l7.4-32H292.5z M289.8,33.7l-0.7-4.8h-0.1l-0.7,4.8l-1.4,8.5h4.5
	L289.8,33.7z M309.1,20.7v26h6.6v5.9h-12.9v-32H309.1z"/>
</svg>
